<svg xmlns="http://www.w3.org/2000/svg" viewBox="0 0 800 800"><path d="M0 0h800v800H0z" fill="#AF0055"/><path d="M403.39 352.27c0 69.72-50.46 116-128.89 116h-54.12V555h-86.23V238.52H274.5c77.5 0 128.89 44.48 128.89 113.75Zm-87.61 1.38c0-25.23-17-38.53-47.7-38.53h-47.7v77.05h47.7c30.73 0 47.7-12.84 47.7-38.52Z" fill="#fff"/><path d="M686.84 442.63C686.84 511.89 635 560 557.5 560c-73.85 0-125.22-44-125.68-105h84.4c3.67 19.27 20.64 33.48 44 33.48 27.06 0 43.11-18.8 43.11-44.49 0-27.06-17.88-44.49-43.11-44.49-22 0-38.07 11.47-44.49 28.44h-78l20.64-189.43h212.88v73.85H523.56l-4.56 42.2c14.22-12.38 34.86-19.26 59.17-19.26 64.64 0 108.67 43.57 108.67 107.33Z" fill="#fff"/></svg>
