<?xml version="1.0" encoding="utf-8"?>
<!-- Generator: Adobe Illustrator 26.2.1, SVG Export Plug-In . SVG Version: 6.00 Build 0)  -->
<svg version="1.1" id="Layer_1" xmlns="http://www.w3.org/2000/svg" xmlns:xlink="http://www.w3.org/1999/xlink" x="0px" y="0px"
	 viewBox="0 0 410.4 101.4" style="enable-background:new 0 0 410.4 101.4;" xml:space="preserve">
<style type="text/css">
	.st0{fill:#FFFFFF;}
	.st1{fill:#004E3A;}
	.st2{opacity:0.8;fill:#23AE84;}
	.st3{fill:#F29EB7;}
</style>
<g>
	<path class="st1" d="M7.8,28.5C3.5,28.5,0,32,0,36.3s3.5,7.8,7.8,7.8c4.3,0,7.8-3.5,7.8-7.8S12.1,28.5,7.8,28.5"/>
	<path class="st2" d="M62.7,57.1c-4.3,0-7.8,3.5-7.8,7.8s3.5,7.8,7.8,7.8c4.3,0,7.8-3.5,7.8-7.8S67,57.1,62.7,57.1"/>
	<path class="st2" d="M62.7,28.5c-4.3,0-7.8,3.5-7.8,7.8s3.5,7.8,7.8,7.8c4.3,0,7.8-3.5,7.8-7.8S67,28.5,62.7,28.5"/>
	<path class="st2" d="M62.7,0c-4.3,0-7.8,3.5-7.8,7.8s3.5,7.8,7.8,7.8c4.3,0,7.8-3.5,7.8-7.8S67,0,62.7,0"/>
	<path class="st1" d="M90.1,44.1c4.3,0,7.8-3.5,7.8-7.8s-3.5-7.8-7.8-7.8c-4.3,0-7.8,3.5-7.8,7.8S85.8,44.1,90.1,44.1"/>
	<path class="st1" d="M90.1,57.1c-4.3,0-7.8,3.5-7.8,7.8s3.5,7.8,7.8,7.8c4.3,0,7.8-3.5,7.8-7.8S94.4,57.1,90.1,57.1"/>
	<path class="st1" d="M90.1,85.8c-4.3,0-7.8,3.5-7.8,7.8s3.5,7.8,7.8,7.8c4.3,0,7.8-3.5,7.8-7.8S94.4,85.8,90.1,85.8"/>
	<path class="st1" d="M35.2,28.5c-4.3,0-7.8,3.5-7.8,7.8s3.5,7.8,7.8,7.8c4.3,0,7.8-3.5,7.8-7.8S39.5,28.5,35.2,28.5"/>
	<path class="st2" d="M35.2,57.1c-4.3,0-7.8,3.5-7.8,7.8s3.5,7.8,7.8,7.8c4.3,0,7.8-3.5,7.8-7.8S39.5,57.1,35.2,57.1"/>
	<polygon class="st1" points="122.1,27.8 132.8,57.7 143.3,27.8 151.4,27.8 136,67.3 129.5,67.3 114,27.8 	"/>
	<g>
		<path class="st1" d="M160.6,62.4c1.3,0,2.5-0.2,3.6-0.7c1.1-0.4,2-1,2.6-1.8c0.8-0.6,1.2-1.3,1.2-2.1v-3.3
			c-0.9-0.3-1.9-0.6-2.9-0.8c-1-0.2-2-0.3-3-0.3c-1.9,0-3.5,0.4-4.7,1.3c-1.2,0.9-1.8,2-1.8,3.3c0,1.3,0.5,2.3,1.4,3.1
			C158,62,159.1,62.4,160.6,62.4 M158.4,67.9c-1.4,0-2.7-0.2-4-0.7c-1.2-0.5-2.3-1.1-3.2-1.9c-0.9-0.8-1.6-1.8-2.1-2.9
			c-0.5-1.1-0.8-2.3-0.8-3.7c0-1.4,0.3-2.6,0.9-3.8c0.6-1.2,1.5-2.2,2.6-3c1.1-0.8,2.4-1.5,3.9-1.9c1.5-0.5,3.2-0.7,5-0.7
			c1.3,0,2.6,0.1,3.8,0.3c1.2,0.2,2.3,0.5,3.3,0.9v-1.7c0-1.9-0.5-3.4-1.6-4.5c-1.1-1-2.7-1.6-4.9-1.6c-1.6,0-3.1,0.3-4.6,0.8
			c-1.5,0.6-3,1.4-4.6,2.5l-2.3-4.7c3.8-2.5,7.8-3.7,12.1-3.7c4.2,0,7.5,1,9.8,3.1c2.3,2.1,3.5,5,3.5,8.9v9.1c0,0.8,0.1,1.3,0.4,1.7
			c0.3,0.3,0.7,0.5,1.4,0.6v6.4c-1.3,0.3-2.4,0.4-3.3,0.4c-1.4,0-2.5-0.3-3.3-0.9c-0.8-0.6-1.2-1.5-1.4-2.5l-0.2-1.6
			c-1.3,1.7-2.9,3-4.7,3.9C162.5,67.4,160.6,67.9,158.4,67.9"/>
		<path class="st1" d="M179.5,52.7c0-2,0.4-4,1.1-5.8c0.7-1.8,1.7-3.4,3.1-4.8c1.3-1.4,3-2.5,4.8-3.3c1.9-0.8,4-1.2,6.4-1.2
			c3.2,0,5.9,0.7,8.2,2.1c2.2,1.4,3.9,3.2,5,5.4l-7.3,2.2c-0.6-1.1-1.5-1.9-2.5-2.5c-1-0.6-2.2-0.9-3.5-0.9c-1.1,0-2.1,0.2-3,0.6
			s-1.7,1-2.4,1.8c-0.7,0.8-1.2,1.7-1.6,2.8c-0.4,1.1-0.6,2.3-0.6,3.6c0,1.3,0.2,2.5,0.6,3.6c0.4,1.1,1,2,1.6,2.8
			c0.7,0.8,1.5,1.4,2.4,1.8c0.9,0.4,1.9,0.6,3,0.6c1.3,0,2.6-0.3,3.7-1c1.1-0.7,1.9-1.5,2.4-2.5l7.3,2.2c-1,2.2-2.7,4-5,5.5
			c-2.3,1.4-5.1,2.1-8.3,2.1c-2.4,0-4.5-0.4-6.4-1.2c-1.9-0.8-3.5-1.9-4.8-3.3c-1.3-1.4-2.4-3-3.1-4.8
			C179.9,56.7,179.5,54.7,179.5,52.7"/>
		<path class="st1" d="M209.8,52.7c0-2,0.4-4,1.1-5.8c0.7-1.8,1.7-3.4,3.1-4.8c1.3-1.4,3-2.5,4.8-3.3c1.9-0.8,4-1.2,6.4-1.2
			c3.2,0,5.9,0.7,8.2,2.1c2.2,1.4,3.9,3.2,5,5.4l-7.3,2.2c-0.6-1.1-1.5-1.9-2.5-2.5c-1-0.6-2.2-0.9-3.5-0.9c-1.1,0-2.1,0.2-3,0.6
			c-0.9,0.4-1.7,1-2.4,1.8c-0.7,0.8-1.2,1.7-1.6,2.8c-0.4,1.1-0.6,2.3-0.6,3.6c0,1.3,0.2,2.5,0.6,3.6c0.4,1.1,1,2,1.6,2.8
			c0.7,0.8,1.5,1.4,2.4,1.8c0.9,0.4,1.9,0.6,3,0.6c1.3,0,2.6-0.3,3.7-1c1.1-0.7,1.9-1.5,2.4-2.5l7.3,2.2c-1,2.2-2.7,4-5,5.5
			c-2.3,1.4-5.1,2.1-8.3,2.1c-2.4,0-4.5-0.4-6.4-1.2c-1.9-0.8-3.5-1.9-4.8-3.3c-1.3-1.4-2.4-3-3.1-4.8
			C210.2,56.7,209.8,54.7,209.8,52.7"/>
	</g>
	<path class="st1" d="M243,38.1h7.5v29.2H243V38.1z M243,26.7h7.5v7.4H243V26.7z"/>
	<g>
		<path class="st1" d="M283.3,67.3h-7.5V51c0-2.3-0.4-4-1.2-5.1c-0.8-1.1-2-1.6-3.4-1.6c-0.7,0-1.5,0.1-2.3,0.4
			c-0.8,0.3-1.5,0.7-2.2,1.3c-0.7,0.5-1.3,1.2-1.9,1.9c-0.6,0.7-1,1.6-1.2,2.5v17h-7.5V38.1h6.7v5.4c1.1-1.9,2.6-3.3,4.7-4.3
			c2-1,4.3-1.6,6.9-1.6c1.8,0,3.3,0.3,4.5,1c1.2,0.7,2,1.5,2.7,2.6c0.6,1.1,1.1,2.3,1.3,3.7c0.2,1.4,0.4,2.8,0.4,4.2V67.3z"/>
		<path class="st1" d="M297.6,62.4c1.3,0,2.5-0.2,3.6-0.7c1.1-0.4,2-1,2.6-1.8c0.8-0.6,1.2-1.3,1.2-2.1v-3.3
			c-0.9-0.3-1.9-0.6-2.9-0.8c-1-0.2-2-0.3-3-0.3c-1.9,0-3.5,0.4-4.7,1.3c-1.2,0.9-1.8,2-1.8,3.3c0,1.3,0.5,2.3,1.4,3.1
			C295,62,296.2,62.4,297.6,62.4 M295.5,67.9c-1.4,0-2.7-0.2-4-0.7c-1.2-0.5-2.3-1.1-3.2-1.9c-0.9-0.8-1.6-1.8-2.1-2.9
			c-0.5-1.1-0.8-2.3-0.8-3.7c0-1.4,0.3-2.6,0.9-3.8c0.6-1.2,1.5-2.2,2.6-3c1.1-0.8,2.4-1.5,3.9-1.9c1.5-0.5,3.2-0.7,5-0.7
			c1.3,0,2.6,0.1,3.8,0.3c1.2,0.2,2.3,0.5,3.3,0.9v-1.7c0-1.9-0.5-3.4-1.6-4.5c-1.1-1-2.7-1.6-4.9-1.6c-1.6,0-3.1,0.3-4.6,0.8
			c-1.5,0.6-3,1.4-4.6,2.5l-2.3-4.7c3.7-2.5,7.8-3.7,12.1-3.7c4.2,0,7.5,1,9.8,3.1c2.3,2.1,3.5,5,3.5,8.9v9.1c0,0.8,0.1,1.3,0.4,1.7
			c0.3,0.3,0.7,0.5,1.4,0.6v6.4c-1.3,0.3-2.4,0.4-3.3,0.4c-1.4,0-2.5-0.3-3.3-0.9c-0.8-0.6-1.2-1.5-1.4-2.5l-0.2-1.6
			c-1.3,1.7-2.9,3-4.7,3.9C299.6,67.4,297.6,67.9,295.5,67.9"/>
		<path class="st1" d="M334.8,65.8c-1,0.4-2.2,0.9-3.7,1.3c-1.5,0.4-3,0.7-4.6,0.7c-1,0-2-0.1-2.9-0.4c-0.9-0.3-1.7-0.7-2.4-1.3
			c-0.7-0.6-1.2-1.3-1.6-2.2c-0.4-0.9-0.6-2-0.6-3.3V43.9h-3.8v-5.7h3.8v-9.5h7.5v9.5h6.1v5.7h-6.1v14.3c0,1,0.3,1.8,0.8,2.2
			c0.5,0.4,1.2,0.6,2,0.6c0.8,0,1.5-0.1,2.3-0.4c0.7-0.3,1.3-0.5,1.8-0.7L334.8,65.8z"/>
	</g>
	<path class="st1" d="M337.6,38.1h7.5v29.2h-7.5V38.1z M337.6,26.7h7.5v7.4h-7.5V26.7z"/>
	<g>
		<path class="st1" d="M356.5,52.8c0,1.3,0.2,2.5,0.6,3.5c0.4,1.1,0.9,2,1.6,2.8c0.7,0.8,1.5,1.4,2.4,1.8c0.9,0.4,1.9,0.6,3,0.6
			c1.1,0,2.1-0.2,3-0.6c0.9-0.4,1.7-1,2.4-1.8c0.7-0.8,1.2-1.7,1.6-2.8c0.4-1.1,0.6-2.3,0.6-3.6c0-1.3-0.2-2.4-0.6-3.5
			c-0.4-1.1-0.9-2-1.6-2.8c-0.7-0.8-1.5-1.4-2.4-1.8c-0.9-0.4-1.9-0.6-3-0.6c-1.1,0-2.1,0.2-3,0.7c-0.9,0.4-1.7,1.1-2.4,1.8
			c-0.7,0.8-1.2,1.7-1.6,2.8C356.7,50.4,356.5,51.5,356.5,52.8 M364.1,67.9c-2.4,0-4.5-0.4-6.4-1.2c-1.9-0.8-3.5-1.9-4.8-3.3
			c-1.3-1.4-2.3-3-3-4.8c-0.7-1.8-1.1-3.7-1.1-5.7c0-2,0.4-4,1.1-5.8c0.7-1.8,1.7-3.4,3-4.8c1.3-1.4,2.9-2.5,4.8-3.3
			c1.9-0.8,4-1.2,6.4-1.2c2.4,0,4.5,0.4,6.4,1.2c1.9,0.8,3.5,1.9,4.8,3.3c1.3,1.4,2.3,3,3,4.8c0.7,1.8,1.1,3.8,1.1,5.8
			c0,2-0.4,3.9-1.1,5.7c-0.7,1.8-1.7,3.4-3,4.8c-1.3,1.4-2.9,2.5-4.8,3.3C368.7,67.5,366.5,67.9,364.1,67.9"/>
		<path class="st1" d="M410.4,67.3H403V51c0-2.3-0.4-4-1.2-5.1c-0.8-1.1-1.9-1.6-3.4-1.6c-0.7,0-1.5,0.1-2.3,0.4
			c-0.8,0.3-1.5,0.7-2.2,1.3c-0.7,0.5-1.3,1.2-1.9,1.9c-0.6,0.7-1,1.6-1.2,2.5v17h-7.5V38.1h6.7v5.4c1.1-1.9,2.6-3.3,4.7-4.3
			c2-1,4.3-1.6,6.9-1.6c1.8,0,3.3,0.3,4.5,1c1.2,0.7,2,1.5,2.7,2.6c0.6,1.1,1.1,2.3,1.3,3.7c0.2,1.4,0.4,2.8,0.4,4.2V67.3z"/>
	</g>
</g>
</svg>
